REM DIRINDEX 1\5,1\2\6,1\2\7,1\3\8,1\3\9,1\4\10,1\4\11,1\4\12
REM DIRNAME cjc026,folder01,folder02,folder03,folder04,folder05,folder06,folder07,folder08,folder09,folder10,folder11
TITLE ""
FILE "EJE_DB3000_5th_6C_40.mp3" MP3
  TRACK 01 AUDIO
    TITLE "0:"
    INDEX 01 00:00:00
  TRACK 02 AUDIO
    TITLE "10:cjc026_11697"
    INDEX 01 00:00:08
  TRACK 03 AUDIO
    TITLE "0:"
    INDEX 01 00:02:47
  TRACK 04 AUDIO
    TITLE "11:cjc026_11698"
    INDEX 01 00:03:09
  TRACK 05 AUDIO
    TITLE "0:"
    INDEX 01 00:04:48
  TRACK 06 AUDIO
    TITLE "12:cjc026_11699"
    INDEX 01 00:05:05
  TRACK 07 AUDIO
    TITLE "0:"
    INDEX 01 00:07:47
  TRACK 08 AUDIO
    TITLE "10:cjc026_11700"
    INDEX 01 00:08:07
  TRACK 09 AUDIO
    TITLE "0:"
    INDEX 01 00:09:35
  TRACK 10 AUDIO
    TITLE "11:cjc026_11701"
    INDEX 01 00:09:72
  TRACK 11 AUDIO
    TITLE "0:"
    INDEX 01 00:11:14
  TRACK 12 AUDIO
    TITLE "12:cjc026_11702"
    INDEX 01 00:11:47
  TRACK 13 AUDIO
    TITLE "0:"
    INDEX 01 00:12:74
  TRACK 14 AUDIO
    TITLE "10:cjc026_11703"
    INDEX 01 00:13:37
  TRACK 15 AUDIO
    TITLE "0:"
    INDEX 01 00:15:71
  TRACK 16 AUDIO
    TITLE "11:cjc026_11704"
    INDEX 01 00:16:33
  TRACK 17 AUDIO
    TITLE "0:"
    INDEX 01 00:18:08
  TRACK 18 AUDIO
    TITLE "12:cjc026_11705"
    INDEX 01 00:18:43
  TRACK 19 AUDIO
    TITLE "0:"
    INDEX 01 00:21:01
  TRACK 20 AUDIO
    TITLE "10:cjc026_11706"
    INDEX 01 00:21:36
  TRACK 21 AUDIO
    TITLE "0:"
    INDEX 01 00:22:45
  TRACK 22 AUDIO
    TITLE "11:cjc026_11707"
    INDEX 01 00:23:05
  TRACK 23 AUDIO
    TITLE "0:"
    INDEX 01 00:24:33
  TRACK 24 AUDIO
    TITLE "12:cjc026_11708"
    INDEX 01 00:24:68
  TRACK 25 AUDIO
    TITLE "0:"
    INDEX 01 00:26:02
  TRACK 26 AUDIO
    TITLE "10:cjc026_11709"
    INDEX 01 00:26:37
  TRACK 27 AUDIO
    TITLE "0:"
    INDEX 01 00:27:64
  TRACK 28 AUDIO
    TITLE "11:cjc026_11710"
    INDEX 01 00:28:22
  TRACK 29 AUDIO
    TITLE "0:"
    INDEX 01 00:29:63
  TRACK 30 AUDIO
    TITLE "12:cjc026_11711"
    INDEX 01 00:30:23
  TRACK 31 AUDIO
    TITLE "0:"
    INDEX 01 00:31:51
  TRACK 32 AUDIO
    TITLE "10:cjc026_11712"
    INDEX 01 00:32:11
  TRACK 33 AUDIO
    TITLE "0:"
    INDEX 01 00:33:25
  TRACK 34 AUDIO
    TITLE "11:cjc026_11713"
    INDEX 01 00:33:63
  TRACK 35 AUDIO
    TITLE "0:"
    INDEX 01 00:35:23
  TRACK 36 AUDIO
    TITLE "12:cjc026_11714"
    INDEX 01 00:35:61
  TRACK 37 AUDIO
    TITLE "0:"
    INDEX 01 00:37:03
  TRACK 38 AUDIO
    TITLE "10:cjc026_11715"
    INDEX 01 00:37:38
  TRACK 39 AUDIO
    TITLE "0:"
    INDEX 01 00:38:57
  TRACK 40 AUDIO
    TITLE "11:cjc026_11716"
    INDEX 01 00:39:20
  TRACK 41 AUDIO
    TITLE "0:"
    INDEX 01 00:40:48
  TRACK 42 AUDIO
    TITLE "12:cjc026_11717"
    INDEX 01 00:41:08
  TRACK 43 AUDIO
    TITLE "0:"
    INDEX 01 00:42:30
  TRACK 44 AUDIO
    TITLE "10:cjc026_11718"
    INDEX 01 00:42:65
  TRACK 45 AUDIO
    TITLE "0:"
    INDEX 01 00:44:15
  TRACK 46 AUDIO
    TITLE "11:cjc026_11719"
    INDEX 01 00:44:53
  TRACK 47 AUDIO
    TITLE "0:"
    INDEX 01 00:46:06
  TRACK 48 AUDIO
    TITLE "12:cjc026_11720"
    INDEX 01 00:46:35
  TRACK 49 AUDIO
    TITLE "0:"
    INDEX 01 00:47:60
  TRACK 50 AUDIO
    TITLE "10:cjc026_11721"
    INDEX 01 00:48:23
  TRACK 51 AUDIO
    TITLE "0:"
    INDEX 01 00:49:64
  TRACK 52 AUDIO
    TITLE "11:cjc026_11722"
    INDEX 01 00:50:24
  TRACK 53 AUDIO
    TITLE "0:"
    INDEX 01 00:51:30
  TRACK 54 AUDIO
    TITLE "12:cjc026_11723"
    INDEX 01 00:51:68
  TRACK 55 AUDIO
    TITLE "0:"
    INDEX 01 00:53:31
  TRACK 56 AUDIO
    TITLE "10:cjc026_11724"
    INDEX 01 00:53:66
  TRACK 57 AUDIO
    TITLE "0:"
    INDEX 01 00:55:19
  TRACK 58 AUDIO
    TITLE "11:cjc026_11725"
    INDEX 01 00:55:46
  TRACK 59 AUDIO
    TITLE "0:"
    INDEX 01 00:56:55
  TRACK 60 AUDIO
    TITLE "12:cjc026_11726"
    INDEX 01 00:57:15
  TRACK 61 AUDIO
    TITLE "0:"
    INDEX 01 00:58:40
  TRACK 62 AUDIO
    TITLE "10:cjc026_11727"
    INDEX 01 00:58:72
  TRACK 63 AUDIO
    TITLE "0:"
    INDEX 01 01:00:25
  TRACK 64 AUDIO
    TITLE "11:cjc026_11728"
    INDEX 01 01:00:60
  TRACK 65 AUDIO
    TITLE "0:"
    INDEX 01 01:01:74
  TRACK 66 AUDIO
    TITLE "12:cjc026_11729"
    INDEX 01 01:02:31
  TRACK 67 AUDIO
    TITLE "0:"
    INDEX 01 01:03:59
  TRACK 68 AUDIO
    TITLE "10:cjc026_11730"
    INDEX 01 01:04:16
  TRACK 69 AUDIO
    TITLE "0:"
    INDEX 01 01:05:47
  TRACK 70 AUDIO
    TITLE "11:cjc026_11731"
    INDEX 01 01:06:09
  TRACK 71 AUDIO
    TITLE "0:"
    INDEX 01 01:07:29
  TRACK 72 AUDIO
    TITLE "12:cjc026_11732"
    INDEX 01 01:07:64
  TRACK 73 AUDIO
    TITLE "0:"
    INDEX 01 01:09:19
  TRACK 74 AUDIO
    TITLE "10:cjc026_11733"
    INDEX 01 01:09:54
  TRACK 75 AUDIO
    TITLE "0:"
    INDEX 01 01:11:15
  TRACK 76 AUDIO
    TITLE "11:cjc026_11734"
    INDEX 01 01:11:50
  TRACK 77 AUDIO
    TITLE "0:"
    INDEX 01 01:13:14
  TRACK 78 AUDIO
    TITLE "12:cjc026_11735"
    INDEX 01 01:13:49
  TRACK 79 AUDIO
    TITLE "0:"
    INDEX 01 01:15:09
  TRACK 80 AUDIO
    TITLE "10:cjc026_11736"
    INDEX 01 01:15:44
  TRACK 81 AUDIO
    TITLE "0:"
    INDEX 01 01:17:03
  TRACK 82 AUDIO
    TITLE "11:cjc026_11737"
    INDEX 01 01:17:38
  TRACK 83 AUDIO
    TITLE "0:"
    INDEX 01 01:18:71
  TRACK 84 AUDIO
    TITLE "12:cjc026_11738"
    INDEX 01 01:19:33
  TRACK 85 AUDIO
    TITLE "0:"
    INDEX 01 01:20:64
